<svg width="668" height="668" viewBox="0 0 668 668" fill="none" xmlns="http://www.w3.org/2000/svg">
<rect width="668" height="668" rx="334" fill="white"/>
<path d="M408.473 195.363H259.462L334.206 302.797L408.473 195.363Z" fill="#8AA6BA" stroke="#8AA6BA" stroke-width="0.317383"/>
<path d="M334.206 544.008L221.059 472.121L274.379 437.685L291.835 470.693L313.1 503.701H355.629L376.418 470.376L394.032 437.526L448.305 472.121L334.206 544.008Z" fill="#5B7C96" stroke="#5B7C96" stroke-width="0.317383"/>
<path d="M408.473 195.521L334.206 302.797L259.462 195.363L201.063 295.656L302.467 333.107L313.576 450.222H354.677L365.785 332.948L466.872 295.656L408.473 195.521Z" fill="#6C8BA4" stroke="#6C8BA4" stroke-width="0.317383"/>
<path d="M313.576 450.222L291.835 470.534L313.259 503.701H355.629L376.418 470.534L354.518 450.222H313.576Z" fill="#32526A" stroke="#32526A" stroke-width="0.317383"/>
<path d="M221.058 472.121L138.221 419.436L246.449 385.476L274.379 437.685L221.058 472.121Z" fill="#6B8CA4" stroke="#6B8CA4" stroke-width="0.317383"/>
<path d="M448.305 472.121L530.984 418.96L421.804 385.317L394.033 437.526L448.305 472.121Z" fill="#6B8CA4" stroke="#6B8CA4" stroke-width="0.317383"/>
<path d="M259.462 195.363L180.592 330.886L136.925 245.26C136.323 244.081 136.106 242.743 136.302 241.434L153.488 127.013C153.767 125.159 155.89 124.236 157.436 125.297L259.462 195.363Z" fill="#43627B" stroke="#43627B" stroke-width="0.317383"/>
<path d="M408.474 195.522L487.661 331.203L531.486 245.105C532.088 243.923 532.304 242.583 532.105 241.271L514.77 127.31C514.488 125.461 512.372 124.54 510.827 125.595L408.474 195.522Z" fill="#43627B" stroke="#43627B" stroke-width="0.317383"/>
<path d="M302.467 333.107L313.576 450.063L291.835 470.693L246.449 385.476L138.221 419.118L180.751 333.107V330.568L201.381 295.815L302.467 333.107Z" fill="#8AA5BA" stroke="#8AA5BA" stroke-width="0.317383"/>
<path d="M365.786 332.949L354.677 449.905L376.418 470.534L421.804 385.317L531.142 418.801L487.502 332.949V330.41L466.555 295.656L365.786 332.949Z" fill="#8AA5BA" stroke="#8AA5BA" stroke-width="0.317383"/>
<path d="M414.618 354.153L376.122 372.642C375.436 372.972 374.659 372.402 374.768 371.648L380.291 333.286C380.347 332.892 380.642 332.575 381.031 332.491L439.088 319.857C439.956 319.668 440.587 320.665 440.045 321.369L414.959 353.876C414.868 353.994 414.751 354.088 414.618 354.153Z" fill="#33526B" stroke="#33526B" stroke-width="0.317383"/>
<path d="M252.842 354.153L291.337 372.642C292.024 372.972 292.8 372.402 292.692 371.648L287.169 333.286C287.112 332.892 286.817 332.575 286.429 332.491L228.371 319.857C227.503 319.668 226.872 320.665 227.415 321.369L252.501 353.876C252.591 353.994 252.708 354.088 252.842 354.153Z" fill="#33526B" stroke="#33526B" stroke-width="0.317383"/>
</svg>
