<svg width="4144" height="1328" viewBox="0 0 4144 1328" fill="none" xmlns="http://www.w3.org/2000/svg">
<path d="M858.5 228H389L624.5 566.5L858.5 228Z" fill="#8AA6BA" stroke="#8AA6BA"/>
<path d="M624.5 1326.5L268 1100L436 991.5L491 1095.5L558 1199.5H692L757.5 1094.5L813 991L984 1100L624.5 1326.5Z" fill="#5B7C96" stroke="#5B7C96"/>
<path d="M858.5 228.5L624.5 566.5L389 228L205 544L524.5 662L559.5 1031H689L724 661.5L1042.5 544L858.5 228.5Z" fill="#6C8BA4" stroke="#6C8BA4"/>
<path d="M559.5 1031L491 1095L558.5 1199.5H692L757.5 1095L688.5 1031H559.5Z" fill="#32526A" stroke="#32526A"/>
<path d="M268 1100L7 934L348 827L436 991.5L268 1100Z" fill="#6B8CA4" stroke="#6B8CA4"/>
<path d="M984 1100L1244.5 932.5L900.5 826.5L813 991L984 1100Z" fill="#6B8CA4" stroke="#6B8CA4"/>
<path d="M389 228L140.5 655L2.91401 385.214C1.01887 381.498 0.333108 377.282 0.952697 373.157L55.1007 12.6453C55.9784 6.80201 62.67 3.89384 67.5408 7.23887L389 228Z" fill="#43627B" stroke="#43627B"/>
<path d="M858.5 228.5L1108 656L1246.08 384.727C1247.98 381.003 1248.66 376.778 1248.03 372.647L1193.41 13.5814C1192.53 7.75462 1185.86 4.85416 1180.99 8.17891L858.5 228.5Z" fill="#43627B" stroke="#43627B"/>
<path d="M524.5 662L559.5 1030.5L491 1095.5L348 827L7 933L141 662V654L206 544.5L524.5 662Z" fill="#8AA5BA" stroke="#8AA5BA"/>
<path d="M724 661.5L689 1030L757.5 1095L900.5 826.5L1245 932L1107.5 661.5V653.5L1041.5 544L724 661.5Z" fill="#8AA5BA" stroke="#8AA5BA"/>
<path d="M877.859 728.308L756.57 786.565C754.406 787.604 751.959 785.809 752.301 783.433L769.703 662.561C769.882 661.322 770.811 660.323 772.035 660.057L954.96 620.25C957.696 619.654 959.683 622.798 957.973 625.014L878.935 727.437C878.649 727.807 878.28 728.106 877.859 728.308Z" fill="#33526B" stroke="#33526B"/>
<path d="M368.141 728.308L489.43 786.565C491.594 787.604 494.041 785.809 493.699 783.433L476.297 662.561C476.118 661.322 475.189 660.323 473.965 660.057L291.04 620.25C288.304 619.654 286.317 622.798 288.027 625.014L367.065 727.437C367.351 727.807 367.72 728.106 368.141 728.308Z" fill="#33526B" stroke="#33526B"/>
<path d="M2594 357L2469.7 1069.8C2467.5 1083 2460.9 1094 2449.9 1102.8C2438.9 1111.6 2425.7 1116 2410.3 1116H2253C2238.33 1116 2225.13 1111.6 2213.4 1102.8C2202.4 1094 2195.8 1082.63 2193.6 1068.7L2108.9 574.8C2106.7 557.934 2104.5 541.434 2102.3 525.3C2100.1 508.434 2097.9 491.934 2095.7 475.8H2074.8C2073.33 491.934 2071.5 508.434 2069.3 525.3C2067.1 542.167 2064.9 558.667 2062.7 574.8L1978 1068.7C1975.8 1082.63 1968.83 1094 1957.1 1102.8C1946.1 1111.6 1933.27 1116 1918.6 1116H1760.2C1745.53 1116 1732.33 1111.6 1720.6 1102.8C1709.6 1094 1703 1083 1700.8 1069.8L1576.5 357H1745.9L1825.1 885C1827.3 901.133 1829.13 918.367 1830.6 936.7C1832.07 955.033 1833.53 974.467 1835 995H1855.9C1858.83 977.4 1861.77 959.067 1864.7 940C1868.37 920.2 1871.3 901.867 1873.5 885L1957.1 408.7C1959.3 393.3 1965.9 380.834 1976.9 371.3C1987.9 361.767 2001.1 357 2016.5 357H2155.1C2170.5 357 2183.33 361.767 2193.6 371.3C2204.6 380.834 2211.2 393.3 2213.4 408.7L2298.1 886.1C2301.03 903.7 2303.97 922.033 2306.9 941.1C2309.83 959.433 2312.4 977.4 2314.6 995H2336.6C2338.07 977.4 2339.53 959.067 2341 940C2343.2 920.933 2345.03 903.333 2346.5 887.2L2424.6 357H2594ZM2836.9 572.6V930.1C2836.9 952.833 2841.67 968.967 2851.2 978.5C2861.47 988.033 2877.6 992.8 2899.6 992.8C2922.34 992.8 2944.7 988.767 2966.7 980.7C2989.44 971.9 3017.3 958.333 3050.3 940L3063.5 1029.1C3023.9 1063.57 2985.04 1089.23 2946.9 1106.1C2908.77 1122.97 2869.54 1131.4 2829.2 1131.4C2725.8 1131.4 2674.1 1080.8 2674.1 979.6V572.6H2836.9ZM3196.6 572.6V1116H3067.9L3049.2 1009.3L3033.8 993.9V572.6H3196.6ZM3493.35 346L3492.25 942.2C3492.25 960.533 3497.75 974.467 3508.75 984C3519.75 992.8 3535.89 997.2 3557.15 997.2H3601.15L3619.85 1107.2C3611.05 1111.6 3598.59 1115.27 3582.45 1118.2C3566.32 1121.87 3549.82 1124.43 3532.95 1125.9C3516.09 1128.1 3501.79 1129.2 3490.05 1129.2C3440.92 1129.2 3402.05 1116.37 3373.45 1090.7C3344.85 1065.03 3330.55 1029.1 3330.55 982.9V346H3493.35ZM3908.42 322.9C3921.62 322.9 3938.85 323.267 3960.12 324C3982.12 324.734 4004.12 326.2 4026.12 328.4C4048.85 329.867 4068.29 332.067 4084.42 335L4070.12 439.5H3966.72C3938.85 439.5 3919.42 445 3908.42 456C3897.42 467 3891.92 486.067 3891.92 513.2V1116H3729.12V492.3C3729.12 457.834 3734.62 428.134 3745.62 403.2C3757.35 378.267 3776.42 358.834 3802.82 344.9C3829.22 330.234 3864.42 322.9 3908.42 322.9ZM4043.72 572.6V679.3H3634.52V578.1L3732.42 572.6H4043.72Z" fill="#3D4F5E"/>
</svg>
